<?xml version="1.0" encoding="utf-8"?>
<!-- Generator: Adobe Illustrator 18.1.1, SVG Export Plug-In . SVG Version: 6.00 Build 0)  -->
<!DOCTYPE svg PUBLIC "-//W3C//DTD SVG 1.1//EN" "http://www.w3.org/Graphics/SVG/1.1/DTD/svg11.dtd">
<svg version="1.1" id="Layer_1" xmlns="http://www.w3.org/2000/svg" xmlns:xlink="http://www.w3.org/1999/xlink" x="0px" y="0px"
	 width="1024px" height="768px" viewBox="0 0 1024 768" style="enable-background:new 0 0 1024 768;" xml:space="preserve">
<style type="text/css">
	.st0{fill:#F05A2A;stroke:#221F1F;stroke-width:2.1176;stroke-miterlimit:10;}
	.st1{fill:#FFFFFF;stroke:#FFFFFF;stroke-width:1.0588;stroke-miterlimit:10;}
	.st2{fill:#FBED21;stroke:#FBED21;stroke-width:2.1177;stroke-miterlimit:10;}
	.st3{fill:#FBED21;stroke:#FBED21;stroke-width:3.1765;stroke-miterlimit:10;}
</style>
<g>
	
		<rect x="356.4" y="292.1" transform="matrix(0.9772 -0.2123 0.2123 0.9772 -69.434 117.6289)" class="st0" width="313.1" height="179.9"/>
	<g>
		<path class="st1" d="M388,342.6l3.8-0.8l25.4,34.6l-5.6,1.2l-7.5-10.2l-16.3,3.5l-2.3,12.3l-5.6,1.2L388,342.6z M400.8,363
			l-9.2-12.5l-2.7,15.1L400.8,363z"/>
		<path class="st1" d="M455.1,347l13.8-3l3.8,17.4c-4.6,3.3-9.3,5.5-14.3,6.6c-6.8,1.5-12.6,0.7-17.6-2.4c-4.9-3.1-8-7.5-9.3-13.3
			c-1.3-6.1-0.3-11.7,3-16.7c3.3-5,8.2-8.2,14.5-9.5c2.3-0.5,4.6-0.7,6.7-0.7c2.2,0,5,0.4,8.5,1l1.3,6c-5.5-1.8-10.7-2.1-15.5-1.1
			c-4.5,1-7.9,3.3-10.3,7c-2.4,3.7-3.1,7.8-2.2,12.2c1,4.7,3.4,8.1,7.1,10.4c3.7,2.3,8,2.9,12.8,1.9c2.3-0.5,5-1.7,8.1-3.4l0.5-0.3
			l-1.9-8.5l-7.9,1.7L455.1,347z"/>
		<path class="st1" d="M498.3,358.8l-0.8-3.5c-0.9,1.5-2,2.7-3.3,3.7c-1.3,1-2.7,1.7-4.1,2c-1.7,0.4-3.4,0.3-5-0.3
			c-1.6-0.5-3-1.5-4-2.8c-1.1-1.3-1.9-3.6-2.7-7l-3.4-15.5l5.3-1.2l3.3,15.4c0.6,2.8,1.5,4.7,2.5,5.7c1.1,0.9,2.6,1.2,4.6,0.8
			c2.5-0.6,4.4-2.3,5.7-5.1l-4.2-19.3l5.3-1.2l5.9,27L498.3,358.8z"/>
		<path class="st1" d="M505.5,317c0.9-0.2,1.7-0.1,2.5,0.4c0.8,0.5,1.2,1.1,1.4,2c0.2,0.9,0,1.7-0.5,2.4c-0.5,0.8-1.2,1.2-2.1,1.4
			c-0.8,0.2-1.6,0-2.4-0.5c-0.8-0.5-1.2-1.2-1.4-2c-0.2-0.8,0-1.6,0.5-2.4C504.1,317.7,504.7,317.2,505.5,317z M505.4,329l5.3-1.2
			l5.9,27l-5.3,1.2L505.4,329z"/>
		<path class="st1" d="M533.4,308.2l5.4-1.2l8.9,41l-11.4,2.5c-4,0.9-7.5,0.3-10.4-1.7c-2.9-2-4.9-5.1-5.8-9.4
			c-0.9-4-0.3-7.5,1.6-10.6c1.9-3.1,4.8-5.1,8.7-5.9c1.8-0.4,3.8-0.4,6.1-0.1L533.4,308.2z M541.3,344.6l-3.7-17.1
			c-1.8-0.5-3.6-0.5-5.3-0.2c-2.7,0.6-4.6,1.9-5.8,4c-1.2,2.1-1.5,4.6-0.8,7.6c0.6,2.8,1.8,4.8,3.5,6c1,0.7,2,1.1,3,1.3
			c1,0.1,2.7-0.1,5.1-0.6L541.3,344.6z"/>
		<path class="st1" d="M575.1,328.4l-19,4.1c0.7,2.6,2,4.4,3.9,5.6c1.9,1.2,4.2,1.5,6.7,0.9c3.5-0.8,6.5-2.6,9-5.4l1.1,5.2
			c-1.4,1.5-2.9,2.6-4.4,3.4c-1.5,0.8-3.4,1.5-5.5,1.9c-3,0.6-5.5,0.6-7.6-0.3c-2.1-0.8-3.9-2.2-5.5-4s-2.6-4.1-3.2-6.9
			c-0.9-4.1-0.5-7.7,1.3-10.8c1.8-3.1,4.5-5,8.2-5.8c3.6-0.8,6.7-0.1,9.4,1.9c2.7,2,4.5,5.2,5.4,9.4L575.1,328.4z M555.6,329.3
			l13.6-3c-0.6-2.1-1.6-3.6-3-4.5c-1.4-0.9-3-1.2-5-0.7c-1.9,0.4-3.4,1.3-4.3,2.8C555.9,325.3,555.5,327.1,555.6,329.3z"/>
		<path class="st1" d="M590.9,316.5l7.3-11.2l1.1,5.2l7.9-1.7l1,4.5l-7.9,1.7l2.7,12.3c0.6,2.9,2.1,4,4.5,3.5c1.8-0.4,3.5-1.4,5.3-3
			l1,4.6c-1.7,1.5-3.6,2.5-5.9,3c-2.3,0.5-4.3,0.2-6.1-0.8c-0.6-0.3-1-0.7-1.5-1.1s-0.8-1-1.2-1.8c-0.4-0.8-0.8-2.3-1.3-4.6
			l-2.4-11.1L591,317L590.9,316.5z"/>
		<path class="st1" d="M624.2,305.1c3.8-0.8,7.3-0.3,10.3,1.6c3.1,1.9,5,4.7,5.8,8.5c0.8,3.6,0.2,6.9-1.9,9.9c-2,3-5,4.8-8.9,5.7
			c-3.8,0.8-7.2,0.3-10.2-1.6c-3.1-1.9-5-4.6-5.8-8.3c-0.8-3.7-0.2-7,1.8-10C617.4,307.8,620.3,305.9,624.2,305.1z M624.9,309.6
			c-2.4,0.5-4.2,1.7-5.4,3.6c-1.2,1.9-1.5,4.1-1,6.5c0.5,2.4,1.7,4.2,3.6,5.4c1.9,1.2,4.1,1.5,6.5,1c2.4-0.5,4.3-1.7,5.5-3.6
			c1.2-1.9,1.6-4,1-6.4c-0.5-2.4-1.8-4.2-3.7-5.4C629.5,309.4,627.3,309.1,624.9,309.6z"/>
		<path class="st2" d="M403,391.8l3.6-0.8l5.5,25.2l-3.6,0.8l-2.4-11l-14.2,3.1l2.4,11l-3.6,0.8l-5.5-25.2l3.6-0.8l2.4,10.9
			l14.2-3.1L403,391.8z"/>
		<path class="st2" d="M423.9,387.1l2.5-0.6l16.8,22.9l-3.7,0.8l-5-6.7l-10.7,2.3l-1.5,8.1l-3.7,0.8L423.9,387.1z M432.4,400.6
			l-6-8.2l-1.8,9.9L432.4,400.6z"/>
		<path class="st2" d="M444.2,382.8l3.6-0.8l4.8,21.9l11.3-2.5l0.7,3.3l-14.9,3.2L444.2,382.8z"/>
		<path class="st2" d="M466,378.1l3.6-0.8l4.8,21.9l11.3-2.5l0.7,3.3l-14.9,3.2L466,378.1z"/>
		<path class="st2" d="M500,370.3c3.9-0.8,7.4-0.3,10.5,1.6c3.1,1.9,5.1,4.7,5.9,8.4c0.8,3.7,0.2,7.1-1.9,10.1
			c-2.1,3-5.1,4.9-9.1,5.8c-3.8,0.8-7.2,0.3-10.3-1.6s-5-4.7-5.8-8.3c-0.8-3.8-0.2-7.2,1.8-10.2C493.2,373.1,496.2,371.2,500,370.3z
			 M500.9,373.7c-2.9,0.6-5.1,2-6.5,4.2c-1.5,2.2-1.9,4.7-1.3,7.5c0.6,2.7,2,4.8,4.3,6.2s4.8,1.8,7.6,1.2c2.8-0.6,5-2,6.4-4.3
			c1.5-2.2,1.9-4.7,1.3-7.5c-0.6-2.7-2-4.7-4.3-6.1C506.2,373.5,503.7,373.1,500.9,373.7z"/>
		<path class="st2" d="M552.4,359.3l3.6-0.8l-4.7,27.5l-0.8,0.2l-12.7-18.7l-3.9,22.3l-0.8,0.2l-15.6-23.1l3.6-0.8l10.7,15.9
			l3.2-18.9l3.4-0.7l10.8,15.8L552.4,359.3z"/>
		<path class="st2" d="M562.5,357.1l14.3-3.1l0.7,3.2l-10.7,2.3l1.7,7.7l10.3-2.2l0.7,3.2l-10.3,2.2l1.7,7.8l11-2.4l0.7,3.2
			l-14.6,3.2L562.5,357.1z"/>
		<path class="st2" d="M584.7,352.3l14.3-3.1l0.7,3.2l-10.7,2.3l1.7,7.7l10.3-2.2l0.7,3.2l-10.3,2.2l1.7,7.8l11-2.4l0.7,3.2
			l-14.6,3.2L584.7,352.3z"/>
		<path class="st2" d="M626.8,343.1l3.4-0.7l5.5,25.2l-3.1,0.7l-21-15.7l4.2,19.4l-3.4,0.7l-5.5-25.2l2.9-0.6l21.2,15.9L626.8,343.1
			z"/>
		<path class="st3" d="M441,456.5l1.5,7c-4.1,3.6-9.3,6-15.4,7.4c-5,1.1-9.4,1-13.3-0.2c-3.9-1.2-7.2-3.4-10-6.5
			c-2.8-3.1-4.6-6.7-5.5-10.7c-1.4-6.5-0.3-12.5,3.4-17.9c3.7-5.4,8.9-8.9,15.7-10.4c4.7-1,10.2-0.9,16.4,0.3l1.5,6.9
			c-5.9-1.8-11.3-2.2-16.3-1.1c-5.1,1.1-9,3.6-11.7,7.6c-2.7,4-3.5,8.4-2.4,13.2c1.1,4.9,3.6,8.6,7.6,11c4,2.4,8.6,3.1,13.8,2
			C431.6,463.7,436.6,460.9,441,456.5z"/>
		<path class="st3" d="M463.8,415.4l4.5-1l29.7,40.5l-6.5,1.4l-8.8-11.9l-19,4.1l-2.7,14.4l-6.6,1.4L463.8,415.4z M478.8,439.3
			l-10.7-14.6l-3.2,17.6L478.8,439.3z"/>
		<path class="st3" d="M535.2,400.2l6.1-1.3l9.7,44.6l-5.5,1.2l-37.3-27.9l7.5,34.4l-6,1.3l-9.7-44.6l5.2-1.1l37.6,28.1L535.2,400.2
			z"/>
		<path class="st3" d="M567.1,439.9l-9.7-44.5l15-3.3c6.1-1.3,11.1-1.5,15-0.4c3.9,1.1,7.3,3.1,10.2,6.2c2.9,3.1,4.7,6.7,5.6,10.9
			c0.6,3,0.7,6,0.1,8.9s-1.7,5.7-3.4,8.3c-1.7,2.6-3.9,4.8-6.5,6.5c-1.5,1-3,1.8-4.3,2.3c-1.4,0.5-4,1.2-8,2.1L567.1,439.9z
			 M573,397.9l-8,1.7l7.2,33.2l8.2-1.8c3.2-0.7,5.6-1.5,7.3-2.3s3-1.7,4.1-2.6c1-0.9,1.9-2,2.7-3.2c2.5-3.9,3.2-8.3,2.1-13.1
			c-1-4.8-3.5-8.3-7.4-10.7c-1.4-0.9-3-1.5-4.7-1.9c-1.7-0.4-3.3-0.5-4.7-0.5C578.3,396.9,576.1,397.2,573,397.9z"/>
		<path class="st3" d="M633.2,378.9l7.8-1.7L629,401.8l5.1,23.6l-6.5,1.4l-5.1-23.6l-21-17.4l7.7-1.7l15.3,12.8L633.2,378.9z"/>
	</g>
	<polyline class="st0" points="340.9,327.4 266.2,324.8 276.8,338.7 267.1,348.2 280.2,354.2 271.1,366.7 280.4,370.6 274.4,382 
		285.5,386.3 278.5,400.5 289.8,406.8 282.6,419.4 293.5,423.3 286.3,436.7 298.1,444.3 290,453.6 302.7,461.8 293.7,470.5 
		305.6,478.9 298.2,491.4 310.4,497.2 302.9,513.1 312.6,511 306.3,528.4 319.1,525.6 315.7,542.8 379.1,503.3 	"/>
	<polyline class="st0" points="685,436.8 756.9,435.3 746.6,421.7 756.1,412.5 743.3,406.6 752.2,394.5 743.1,390.7 748.9,379.6 
		738.2,375.3 745,361.5 733.9,355.3 741,343.1 730.3,339.3 737.3,326.2 725.9,318.9 733.8,309.8 721.4,301.8 730.2,293.3 
		718.6,285.2 725.8,272.9 713.9,267.3 721.2,251.8 711.8,253.8 717.9,236.9 705.4,239.6 708.7,222.8 646.9,261.4 	"/>
</g>
<g>
</g>
<g>
</g>
<g>
</g>
<g>
</g>
<g>
</g>
<g>
</g>
<g>
</g>
<g>
</g>
<g>
</g>
<g>
</g>
<g>
</g>
<g>
</g>
<g>
</g>
<g>
</g>
<g>
</g>
</svg>
